HIERARCHY
ROOT Hips
{
    OFFSET   0.000000   0.000000   0.000000
    CHANNELS 6 Xposition Yposition Zposition Zrotation Xrotation Yrotation
    JOINT Chest
    {
        OFFSET   0.000000   8.007230   0.000000
        CHANNELS 3 Zrotation Xrotation Yrotation
        JOINT Chest2
        {
            OFFSET   0.000000  22.077100   0.000000
            CHANNELS 3 Zrotation Xrotation Yrotation
            JOINT Neck
            {
                OFFSET   0.000000  23.254700   0.000000
                CHANNELS 3 Zrotation Xrotation Yrotation
                JOINT Head
                {
                    OFFSET   0.000010  14.370000   1.956610
                    CHANNELS 3 Zrotation Xrotation Yrotation
                    End Site
                    {
                        OFFSET   0.000000  19.566000   0.000000
                    }
                }
            }
            JOINT LeftCollar
            {
                OFFSET   3.911900  19.017000  -0.467063
                CHANNELS 3 Zrotation Xrotation Yrotation
                JOINT LeftShoulder
                {
                    OFFSET  10.383700   0.000000   0.000000
                    CHANNELS 3 Zrotation Xrotation Yrotation
                    JOINT LeftElbow
                    {
                        OFFSET  26.662100   0.001671   0.000522
                        CHANNELS 3 Zrotation Xrotation Yrotation
                        JOINT LeftWrist
                        {
                            OFFSET  28.869000   0.000037  -0.000114
                            CHANNELS 3 Zrotation Xrotation Yrotation
                            JOINT LeftFinger0
                            {
                                OFFSET   2.044650  -2.323450   3.252850
                                CHANNELS 3 Zrotation Xrotation Yrotation
                                JOINT LeftFinger01
                                {
                                    OFFSET   3.088140   0.000000   0.000000
                                    CHANNELS 3 Zrotation Xrotation Yrotation
                                    JOINT LeftFinger02
                                    {
                                        OFFSET   2.639460   0.000000   0.000000
                                        CHANNELS 3 Zrotation Xrotation Yrotation
                                        End Site
                                        {
                                            OFFSET   2.582190   0.000000   0.000000
                                        }
                                    }
                                }
                            }
                            JOINT LeftFinger1
                            {
                                OFFSET   8.364480   0.000000   3.252850
                                CHANNELS 3 Zrotation Xrotation Yrotation
                                JOINT LeftFinger11
                                {
                                    OFFSET   4.646930   0.000000   0.000000
                                    CHANNELS 3 Zrotation Xrotation Yrotation
                                    JOINT LeftFinger12
                                    {
                                        OFFSET   2.323470   0.000000   0.000000
                                        CHANNELS 3 Zrotation Xrotation Yrotation
                                        End Site
                                        {
                                            OFFSET   2.273050   0.000000   0.000000
                                        }
                                    }
                                }
                            }
                            JOINT LeftFinger2
                            {
                                OFFSET   8.364490   0.000016   1.078090
                                CHANNELS 3 Zrotation Xrotation Yrotation
                                JOINT LeftFinger21
                                {
                                    OFFSET   5.111620   0.000000   0.000000
                                    CHANNELS 3 Zrotation Xrotation Yrotation
                                    JOINT LeftFinger22
                                    {
                                        OFFSET   2.788150   0.000013   0.000000
                                        CHANNELS 3 Zrotation Xrotation Yrotation
                                        End Site
                                        {
                                            OFFSET   2.727660   0.000000   0.000000
                                        }
                                    }
                                }
                            }
                            JOINT LeftFinger3
                            {
                                OFFSET   7.899780   0.000016  -1.078090
                                CHANNELS 3 Zrotation Xrotation Yrotation
                                JOINT LeftFinger31
                                {
                                    OFFSET   4.646930   0.000000   0.000000
                                    CHANNELS 3 Zrotation Xrotation Yrotation
                                    JOINT LeftFinger32
                                    {
                                        OFFSET   2.323470   0.000000   0.000000
                                        CHANNELS 3 Zrotation Xrotation Yrotation
                                        End Site
                                        {
                                            OFFSET   2.273050   0.000000   0.000000
                                        }
                                    }
                                }
                            }
                            JOINT LeftFinger4
                            {
                                OFFSET   7.435080   0.000000  -3.252850
                                CHANNELS 3 Zrotation Xrotation Yrotation
                                JOINT LeftFinger41
                                {
                                    OFFSET   3.717550   0.000000   0.000000
                                    CHANNELS 3 Zrotation Xrotation Yrotation
                                    JOINT LeftFinger42
                                    {
                                        OFFSET   1.858760   0.000000   0.000000
                                        CHANNELS 3 Zrotation Xrotation Yrotation
                                        End Site
                                        {
                                            OFFSET   1.818440   0.000000   0.000000
                                        }
                                    }
                                }
                            }
                        }
                    }
                }
            }
            JOINT RightCollar
            {
                OFFSET  -3.911900  19.017000  -0.467064
                CHANNELS 3 Zrotation Xrotation Yrotation
                JOINT RightShoulder
                {
                    OFFSET -10.383700   0.000000   0.000000
                    CHANNELS 3 Zrotation Xrotation Yrotation
                    JOINT RightElbow
                    {
                        OFFSET -26.662100   0.001633   0.000260
                        CHANNELS 3 Zrotation Xrotation Yrotation
                        JOINT RightWrist
                        {
                            OFFSET -28.869000  -0.000045  -0.000080
                            CHANNELS 3 Zrotation Xrotation Yrotation
                            JOINT RightFinger0
                            {
                                OFFSET  -2.044660  -2.323490   3.252850
                                CHANNELS 3 Zrotation Xrotation Yrotation
                                JOINT RightFinger01
                                {
                                    OFFSET  -3.088140   0.000000   0.000000
                                    CHANNELS 3 Zrotation Xrotation Yrotation
                                    JOINT RightFinger02
                                    {
                                        OFFSET  -2.639450   0.000000   0.000000
                                        CHANNELS 3 Zrotation Xrotation Yrotation
                                        End Site
                                        {
                                            OFFSET  -2.582190   0.000000   0.000000
                                        }
                                    }
                                }
                            }
                            JOINT RightFinger1
                            {
                                OFFSET  -8.364480   0.000000   3.252850
                                CHANNELS 3 Zrotation Xrotation Yrotation
                                JOINT RightFinger11
                                {
                                    OFFSET  -4.646920   0.000000   0.000000
                                    CHANNELS 3 Zrotation Xrotation Yrotation
                                    JOINT RightFinger12
                                    {
                                        OFFSET  -2.323470   0.000000   0.000000
                                        CHANNELS 3 Zrotation Xrotation Yrotation
                                        End Site
                                        {
                                            OFFSET  -2.273050   0.000000   0.000000
                                        }
                                    }
                                }
                            }
                            JOINT RightFinger2
                            {
                                OFFSET  -8.364480   0.000000   1.078090
                                CHANNELS 3 Zrotation Xrotation Yrotation
                                JOINT RightFinger21
                                {
                                    OFFSET  -5.111610   0.000000   0.000000
                                    CHANNELS 3 Zrotation Xrotation Yrotation
                                    JOINT RightFinger22
                                    {
                                        OFFSET  -2.788160   0.000000   0.000000
                                        CHANNELS 3 Zrotation Xrotation Yrotation
                                        End Site
                                        {
                                            OFFSET  -2.727660   0.000000   0.000000
                                        }
                                    }
                                }
                            }
                            JOINT RightFinger3
                            {
                                OFFSET  -7.899780   0.000000  -1.078090
                                CHANNELS 3 Zrotation Xrotation Yrotation
                                JOINT RightFinger31
                                {
                                    OFFSET  -4.646930   0.000000   0.000000
                                    CHANNELS 3 Zrotation Xrotation Yrotation
                                    JOINT RightFinger32
                                    {
                                        OFFSET  -2.323470   0.000000   0.000000
                                        CHANNELS 3 Zrotation Xrotation Yrotation
                                        End Site
                                        {
                                            OFFSET  -2.273050   0.000000   0.000000
                                        }
                                    }
                                }
                            }
                            JOINT RightFinger4
                            {
                                OFFSET  -7.435090   0.000000  -3.252850
                                CHANNELS 3 Zrotation Xrotation Yrotation
                                JOINT RightFinger41
                                {
                                    OFFSET  -3.717550   0.000000   0.000000
                                    CHANNELS 3 Zrotation Xrotation Yrotation
                                    JOINT RightFinger42
                                    {
                                        OFFSET  -1.858760   0.000000   0.000000
                                        CHANNELS 3 Zrotation Xrotation Yrotation
                                        End Site
                                        {
                                            OFFSET  -1.818440   0.000000   0.000000
                                        }
                                    }
                                }
                            }
                        }
                    }
                }
            }
        }
    }
    JOINT LeftHip
    {
        OFFSET   9.782990   0.000000   0.000000
        CHANNELS 3 Zrotation Xrotation Yrotation
        JOINT LeftKnee
        {
            OFFSET  -0.000063 -41.789100   0.001657
            CHANNELS 3 Zrotation Xrotation Yrotation
            JOINT LeftAnkle
            {
                OFFSET   0.000078 -41.133200  -0.000113
                CHANNELS 3 Zrotation Xrotation Yrotation
                JOINT LeftToe
                {
                    OFFSET   0.000000  -6.358970  14.674500
                    CHANNELS 3 Zrotation Xrotation Yrotation
                    End Site
                    {
                        OFFSET   0.000000   0.000000   3.913200
                    }
                }
            }
        }
    }
    JOINT RightHip
    {
        OFFSET  -9.782990   0.000000   0.000000
        CHANNELS 3 Zrotation Xrotation Yrotation
        JOINT RightKnee
        {
            OFFSET   0.000053 -41.789200   0.000277
            CHANNELS 3 Zrotation Xrotation Yrotation
            JOINT RightAnkle
            {
                OFFSET   0.000030 -41.133200  -0.000150
                CHANNELS 3 Zrotation Xrotation Yrotation
                JOINT RightToe
                {
                    OFFSET   0.000000  -6.358960  14.674500
                    CHANNELS 3 Zrotation Xrotation Yrotation
                    End Site
                    {
                        OFFSET   0.000000   0.000000   3.913200
                    }
                }
            }
        }
    }
}
MOTION
Frames: 4
Frame Time:   0.016667
  6.181310  89.224400  -0.928279  -5.820450 -11.580600 -11.233500   0.776155   7.062240   0.962672   1.448310  14.136000   1.849350  -0.041832  -0.421976   0.009590  -0.066813  -0.857809   4.678390  -6.145860  -0.936866   4.545960 -71.852900  20.305100  -7.372530  -0.249643  -1.334970 -17.326700  11.127500  -4.262840   4.897490  42.008700  38.545200 -69.813700 -32.282400   0.000000   0.000330 -11.141200   0.001556  -0.000000 -30.814700   5.282600  -8.774740 -25.543800   0.008204   0.001570 -17.880700   0.011866   0.000458 -28.141600  -2.158700   4.027480 -33.579200   0.009808   0.002899 -22.363800  -0.005589   0.001047 -27.814700  -2.134830   4.040160 -31.268600  -0.005135   0.002649 -20.824900  -0.004580   0.001140 -28.864900  -2.209110   4.000060 -43.413100  -0.005452  -0.001035 -28.913100  -0.002549  -0.009947  10.040600   2.477210   9.971620  67.724700  -1.302210  -2.852040  -4.425380  -8.498220  14.183800  -8.856790  -1.020480   3.979850 -41.464300  35.422800  66.475600  30.047500   0.001157  -0.000569  10.021600   0.004228   0.002802  35.033600   6.456940   9.108940  29.084900   0.000000  -0.004057  20.359400  -0.001234   0.000203  31.990200   2.159900   3.452840  48.083000  -0.002594   0.001348  32.023400   0.002270   0.002089  28.774900  -0.433580  -0.789257  41.496000   0.003981   0.009723  27.636300  -0.009897   0.011788  35.018800  -1.570720  -2.240240  52.574400   0.000754   0.002743  35.014500  -0.003602   0.003378  -0.073829  14.622700   7.473970  -0.527937   0.105347   2.829820   3.312110  -3.867120   6.901770  -0.000000   0.000000  -0.000000   2.512370   6.875870   3.433480  -4.584490  11.308800  -9.629100   4.245410  -5.456060   2.959750   0.000000   0.000000  -0.000000
  6.173660  89.224400  -0.905685  -5.834590 -11.588300 -11.271700   0.776804   7.062160   0.961034   1.449830  14.135900   1.845930  -0.041961  -0.422131   0.009611  -0.066992  -0.858097   4.682540  -6.145840  -0.936740   4.546260 -71.877100  20.284900  -7.358910  -0.245748  -1.324000 -17.307600  11.119200  -4.257830   4.866030  42.019900  38.564700 -69.870000 -32.274300   0.000000   0.000328 -11.137200   0.001556   0.000000 -30.832400   5.301160  -8.798850 -25.560300   0.008205   0.001569 -17.892300   0.011861   0.000461 -28.143600  -2.144930   4.001140 -33.609600   0.009810   0.002899 -22.384000  -0.005590   0.001042 -27.816700  -2.121260   4.013720 -31.296500  -0.005135   0.002651 -20.843500  -0.004580   0.001143 -28.888000  -2.196130   3.973280 -43.446100  -0.005452  -0.001034 -28.935000  -0.002550  -0.009947  10.040400   2.477500   9.971650  67.741900  -1.314530  -2.856210  -4.398710  -8.504040  14.127900  -8.883580  -1.012950   3.987840 -41.447500  35.413100  66.492200  30.047700   0.001159  -0.000582  10.021800   0.004222   0.002801  35.056900   6.463250   9.111580  29.104700   0.000000  -0.004057  20.373300  -0.001237   0.000203  31.997800   2.164680   3.459440  48.094800  -0.002595   0.001350  32.031300   0.002268   0.002088  28.775000  -0.433177  -0.788521  41.506200   0.003982   0.009722  27.643100  -0.009898   0.011787  35.025900  -1.567420  -2.234970  52.584800   0.000754   0.002741  35.021400  -0.003600   0.003377  -0.064945  14.639900   7.476000  -0.526872   0.131352   2.847510   3.315140  -3.903000   6.920730  -0.000000   0.000000  -0.000000   2.519960   6.900270   3.437680  -4.583380  11.308800  -9.617410   4.247940  -5.467070   2.981210   0.000000   0.000000   0.000000
  6.162110  89.224600  -0.869365  -5.857230 -11.595000 -11.334000   0.778687   7.062030   0.957580   1.454080  14.135600   1.838680  -0.042090  -0.422285   0.009643  -0.067081  -0.858377   4.692760  -6.145830  -0.936550   4.546670 -71.916700  20.255400  -7.335790  -0.239357  -1.304860 -17.288500  11.106900  -4.250400   4.814590  42.038100  38.594000 -69.948000 -32.260400   0.000000   0.000326 -11.130200   0.001556   0.000000 -30.850200   5.324100  -8.830050 -25.577600   0.008208   0.001567 -17.904400   0.011857   0.000468 -28.146300  -2.125360   3.963790 -33.641100   0.009813   0.002900 -22.404900  -0.005591   0.001037 -27.819400  -2.101950   3.976230 -31.324400  -0.005135   0.002653 -20.862100  -0.004581   0.001145 -28.913200  -2.177560   3.935370 -43.482100  -0.005454  -0.001031 -28.959000  -0.002551  -0.009946  10.040200   2.477790   9.971710  67.767700  -1.332470  -2.865190  -4.355510  -8.516260  14.036900  -8.922660  -0.993925   4.007470 -41.425800  35.400500  66.517700  30.047900   0.001160  -0.000595  10.022000   0.004214   0.002795  35.088500   6.476710   9.121840  29.132000   0.000000  -0.004060  20.392300  -0.001241   0.000200  32.008400   2.175180   3.474750  48.111500  -0.002596   0.001353  32.042400   0.002266   0.002086  28.775100  -0.430354  -0.783372  41.522300   0.003986   0.009722  27.653800  -0.009898   0.011786  35.038100  -1.558410  -2.221130  52.602500   0.000752   0.002738  35.033200  -0.003596   0.003373  -0.052036  14.674800   7.482280  -0.525850   0.157356   2.874800   3.318700  -3.945760   6.950940  -0.000000   0.000000  -0.000000   2.527430   6.936020   3.445130  -4.578850  11.307900  -9.599840   4.252170  -5.483210   3.018020  -0.000000   0.000000   0.000000
  6.155690  89.224700  -0.843081  -5.874960 -11.592800 -11.381800   0.782237   7.061910   0.953046   1.461830  14.135400   1.829070  -0.042058  -0.420312   0.009654  -0.067159  -0.853679   4.707500  -6.146340  -0.936449   4.546830 -71.948400  20.238600  -7.314960  -0.236522  -1.287050 -17.289500  11.099900  -4.246680   4.774280  42.056200  38.609700 -69.982000 -32.247500   0.000000   0.000331 -11.123800   0.001543   0.000000 -30.850400   5.329210  -8.838330 -25.578500   0.008215   0.001566 -17.904900   0.011861   0.000479 -28.147600  -2.115930   3.946050 -33.642300   0.009815   0.002905 -22.405800  -0.005591   0.001040 -27.820700  -2.092560   3.958470 -31.321100  -0.005136   0.002656 -20.859900  -0.004579   0.001145 -28.916000  -2.168160   3.917620 -43.485500  -0.005458  -0.001025 -28.961400  -0.002551  -0.009947  10.040400   2.477140   9.971790  67.781600  -1.339400  -2.876930  -4.323340  -8.530960  13.965800  -8.941350  -0.964793   4.037640 -41.422800  35.398700  66.536300  30.047900   0.001130  -0.000589  10.022100   0.004212   0.002776  35.099500   6.494170   9.142830  29.142400   0.000000  -0.004068  20.398800  -0.001243   0.000195  32.013500   2.189670   3.497220  48.119600  -0.002598   0.001351  32.047200   0.002266   0.002082  28.775400  -0.423243  -0.770419  41.535600   0.003994   0.009724  27.662700  -0.009897   0.011787  35.051200  -1.544590  -2.200440  52.621600   0.000747   0.002731  35.046000  -0.003587   0.003366  -0.046038  14.722000   7.494390  -0.525303   0.121449   2.890990   3.319860  -3.950230   6.972460  -0.000000   0.000000  -0.000000   2.526110   6.953250   3.452750  -4.567490  11.306100  -9.590500   4.255600  -5.491330   3.050180  -0.000000   0.000000  -0.000000
